<svg xmlns="http://www.w3.org/2000/svg" width="1920" height="1080" viewBox="0 0 1920 1080">
  <defs>
    <linearGradient id="bgGradient" x1="0%" y1="0%" x2="100%" y2="100%">
      <stop offset="0%" style="stop-color:#1a1a2e;stop-opacity:1" />
      <stop offset="50%" style="stop-color:#16213e;stop-opacity:1" />
      <stop offset="100%" style="stop-color:#0f3460;stop-opacity:1" />
    </linearGradient>
    <linearGradient id="accentGradient" x1="0%" y1="0%" x2="100%" y2="0%">
      <stop offset="0%" style="stop-color:#6c5ce7;stop-opacity:1" />
      <stop offset="100%" style="stop-color:#00cec9;stop-opacity:1" />
    </linearGradient>
  </defs>
  
  <!-- Background -->
  <rect width="100%" height="100%" fill="url(#bgGradient)"/>
  
  <!-- Decorative circles -->
  <circle cx="200" cy="200" r="150" fill="#6c5ce7" opacity="0.1"/>
  <circle cx="1700" cy="300" r="200" fill="#00cec9" opacity="0.1"/>
  <circle cx="1600" cy="900" r="250" fill="#6c5ce7" opacity="0.08"/>
  <circle cx="300" cy="800" r="180" fill="#00cec9" opacity="0.08"/>
  
  <!-- Grid pattern -->
  <g stroke="#ffffff" stroke-opacity="0.03" stroke-width="1">
    <line x1="0" y1="0" x2="0" y2="1080"/>
    <line x1="96" y1="0" x2="96" y2="1080"/>
    <line x1="192" y1="0" x2="192" y2="1080"/>
    <line x1="288" y1="0" x2="288" y2="1080"/>
    <line x1="384" y1="0" x2="384" y2="1080"/>
    <line x1="480" y1="0" x2="480" y2="1080"/>
    <line x1="576" y1="0" x2="576" y2="1080"/>
    <line x1="672" y1="0" x2="672" y2="1080"/>
    <line x1="768" y1="0" x2="768" y2="1080"/>
    <line x1="864" y1="0" x2="864" y2="1080"/>
    <line x1="960" y1="0" x2="960" y2="1080"/>
    <line x1="1056" y1="0" x2="1056" y2="1080"/>
    <line x1="1152" y1="0" x2="1152" y2="1080"/>
    <line x1="1248" y1="0" x2="1248" y2="1080"/>
    <line x1="1344" y1="0" x2="1344" y2="1080"/>
    <line x1="1440" y1="0" x2="1440" y2="1080"/>
    <line x1="1536" y1="0" x2="1536" y2="1080"/>
    <line x1="1632" y1="0" x2="1632" y2="1080"/>
    <line x1="1728" y1="0" x2="1728" y2="1080"/>
    <line x1="1824" y1="0" x2="1824" y2="1080"/>
    <line x1="1920" y1="0" x2="1920" y2="1080"/>
    <line x1="0" y1="0" x2="1920" y2="0"/>
    <line x1="0" y1="108" x2="1920" y2="108"/>
    <line x1="0" y1="216" x2="1920" y2="216"/>
    <line x1="0" y1="324" x2="1920" y2="324"/>
    <line x1="0" y1="432" x2="1920" y2="432"/>
    <line x1="0" y1="540" x2="1920" y2="540"/>
    <line x1="0" y1="648" x2="1920" y2="648"/>
    <line x1="0" y1="756" x2="1920" y2="756"/>
    <line x1="0" y1="864" x2="1920" y2="864"/>
    <line x1="0" y1="972" x2="1920" y2="972"/>
    <line x1="0" y1="1080" x2="1920" y2="1080"/>
  </g>
  
  <!-- Central decorative elements -->
  <polygon points="960,200 1060,400 860,400" fill="url(#accentGradient)" opacity="0.2"/>
  <polygon points="960,880 1060,680 860,680" fill="url(#accentGradient)" opacity="0.2" transform="rotate(180, 960, 780)"/>
  
  <!-- Floating particles -->
  <circle cx="400" cy="400" r="3" fill="#6c5ce7" opacity="0.6"/>
  <circle cx="600" cy="250" r="2" fill="#00cec9" opacity="0.5"/>
  <circle cx="1300" cy="350" r="4" fill="#6c5ce7" opacity="0.4"/>
  <circle cx="1500" cy="600" r="3" fill="#00cec9" opacity="0.6"/>
  <circle cx="500" cy="700" r="2" fill="#6c5ce7" opacity="0.5"/>
  <circle cx="1400" cy="800" r="3" fill="#00cec9" opacity="0.4"/>
  <circle cx="800" cy="850" r="2" fill="#6c5ce7" opacity="0.6"/>
  <circle cx="1100" cy="250" r="4" fill="#00cec9" opacity="0.5"/>
</svg>
